<svg width="240" height="279" viewBox="0 0 240 279" fill="none" xmlns="http://www.w3.org/2000/svg">
<g clip-path="url(#clip0_218_1513)">
<path d="M14.3438 240.647C14.3438 240.647 39.2715 258.615 46.6898 258.615L51.9885 256.495L58.0775 256.855L59.4935 261.178L68.9445 262.854L65.7653 266.033L76.3628 268.682L82.7213 264.443L84.8408 267.093L92.259 264.443L94.0338 268.682L102.856 265.503L108.685 267.622C108.685 267.622 109.745 273.981 115.044 274.511C120.342 275.04 127.761 278.749 127.761 278.749L144.3 271.675L146.306 268.152L152.135 269.742L167.501 261.264C167.501 261.264 167.16 261.311 163.092 259.698C159.023 258.085 158.493 255.966 158.493 255.966L155.609 256.855C155.609 256.855 151.066 255.596 154.25 250.217C157.434 244.839 154.929 245.586 154.929 245.586L150.015 246.958L147.366 242.719C147.366 242.719 142.067 244.309 141.007 244.839C139.948 245.368 142.597 242.189 142.597 242.189L140.478 241.13L141.007 238.48C141.007 238.48 139.418 237.421 141.537 235.301C143.657 233.182 139.948 231.062 139.948 231.062C139.948 231.062 130.25 234.185 133.774 228.915C137.298 223.644 134.224 221.527 134.224 221.527L110.706 214.107L108.155 217.816C108.155 217.816 99.764 215.542 102.37 222.507C102.37 222.507 96.5931 222.982 98.665 226.227C98.665 226.227 91.7291 225.353 93.3187 229.532L87.7045 227.971C87.7045 227.971 83.417 226.691 86.7782 226.227C90.1395 225.764 85.5433 224.439 85.5433 224.439C85.5433 224.439 87.0468 218.611 82.7645 220.333C78.4823 222.055 74.863 224.439 74.863 224.439L14.3438 240.647Z" fill="#B3B3B3"/>
<path d="M15.9336 238.527C15.9336 238.527 40.8614 256.495 48.2796 256.495L53.5784 254.376L59.6673 254.736L61.0833 259.058L70.5344 260.734L67.3551 263.913L77.9526 266.563L84.3111 262.324L86.4306 264.973L93.8488 262.324L95.6236 266.563L104.446 263.384L110.275 265.503C110.275 265.503 111.335 271.861 116.633 272.391C121.932 272.921 129.35 276.63 129.35 276.63L145.89 269.555L147.896 266.033L153.725 267.622L169.091 259.145C169.091 259.145 168.75 259.192 164.681 257.579C160.613 255.966 160.083 253.846 160.083 253.846L157.199 254.736C157.199 254.736 152.656 253.477 155.84 248.098C159.023 242.719 156.519 243.467 156.519 243.467L151.605 244.839L148.956 240.6C148.956 240.6 143.657 242.189 142.597 242.719C141.538 243.249 144.187 240.07 144.187 240.07L142.067 239.01L142.597 236.361C142.597 236.361 141.008 235.301 143.127 233.182C145.247 231.062 141.538 228.943 141.538 228.943C141.538 228.943 131.84 232.066 135.364 226.795C138.888 221.525 135.814 219.407 135.814 219.407L112.296 211.987L109.745 215.696C109.745 215.696 101.354 213.422 103.96 220.388C103.96 220.388 98.1829 220.863 100.255 224.108C100.255 224.108 93.319 223.233 94.9086 227.413L89.2943 225.852C89.2943 225.852 85.0068 224.572 88.3681 224.108C91.7293 223.644 87.1331 222.32 87.1331 222.32C87.1331 222.32 88.6367 216.491 84.3544 218.213C80.0721 219.935 76.4529 222.32 76.4529 222.32L15.9336 238.527Z" fill="#D6D6E3"/>
<path d="M193.996 178.606C193.996 178.606 214.131 173.838 212.011 154.233L215.72 155.293V147.902C215.72 147.902 223.096 160.061 223.117 164.83C223.139 169.599 226.318 204.04 188.167 197.681L193.996 178.606Z" fill="#F9B4ED"/>
<path d="M85.3712 14.3509L80.3374 14.6158H72.3258C72.3258 14.6158 66.6049 13.2911 64.5958 14.3509L67.3555 15.9404C67.3555 15.9404 62.5866 16.4703 60.997 18.5897H65.4314C65.4314 18.5897 59.4073 20.1793 58.3476 24.4181C57.2878 28.657 46.6904 38.1944 46.6904 38.1944C46.6904 38.1944 24.9655 55.6797 51.4592 79.5232C51.4592 79.5232 54.6385 89.5905 53.5787 91.1801C52.519 92.7697 66.8256 94.8891 68.4152 83.7621C70.0048 72.6351 73.1841 49.3214 73.1841 46.6721C73.1841 44.0228 80.0724 27.5973 80.0724 27.5973" fill="#F9B4ED"/>
<path d="M150.016 14.3509L155.049 14.6158H163.061C163.061 14.6158 168.782 13.2911 170.791 14.3509L168.031 15.9404C168.031 15.9404 172.8 16.4703 174.39 18.5897H169.955C169.955 18.5897 175.979 20.1793 177.039 24.4181C178.099 28.657 188.696 38.1944 188.696 38.1944C188.696 38.1944 210.421 55.6797 183.928 79.5232C183.928 79.5232 180.748 89.5905 181.808 91.1801C182.868 92.7697 168.561 94.8891 166.972 83.7621C165.382 72.6351 162.203 49.3214 162.203 46.6721C162.203 44.0228 155.314 27.5973 155.314 27.5973" fill="#F9B4ED"/>
<path d="M192.671 197.416C191.611 202.714 186.843 206.423 186.843 206.423C184.723 219.67 175.715 213.841 175.715 213.841C175.185 215.961 165.118 214.901 165.118 214.901L163.528 212.808V219.14C163.528 223.909 157.17 222.319 157.17 222.319C155.58 227.088 145.889 224.439 145.889 224.439C142.031 227.618 134.915 224.439 134.915 224.439C125.377 223.909 124.317 215.961 124.317 215.961L125.907 202.185L116.374 202.386C105.777 211.59 94.9094 203.334 94.9094 203.334C94.9094 203.334 93.0548 212.782 91.9951 217.55C90.9353 222.319 76.4802 220.984 76.4802 220.984C73.153 224.417 66.1637 220.39 66.1637 220.39C60.4624 222.695 57.0234 217.55 57.0234 217.55C49.0752 210.132 63.7156 198.359 63.7156 198.359V170.881C57.6909 146.459 66.2962 101.416 66.2962 101.416C67.0061 99.3287 68.3096 97.7867 69.7879 96.6582C73.2482 93.9931 77.6672 93.5639 77.6672 93.5639C77.6672 93.5639 149.751 87.2056 160.349 88.2653C162.352 88.4666 163.958 89.7806 165.24 91.7834C170.766 100.383 170.416 121.646 170.416 121.646C181.014 126.415 183.663 149.729 183.663 149.729C208.038 158.206 193.731 192.117 192.671 197.416Z" fill="#F9B4ED"/>
<path d="M151.871 11.9665C151.871 11.9665 114.25 -16.6458 80.3375 14.6158C80.3375 14.6158 56.7581 73.165 65.766 86.9412C74.7738 100.718 101.388 112.418 101.388 112.418C101.388 112.418 118.537 116.17 134.542 112.418C150.546 108.665 168.032 83.2322 168.032 83.2322C168.032 83.2322 168.562 16.4703 151.871 11.9665Z" fill="#F9B4ED"/>
<path d="M129.145 33.6383C131.512 38.727 136.188 42.6065 141.609 44.0398C142.599 44.3016 143.021 42.7687 142.032 42.507C136.975 41.1699 132.721 37.5737 130.517 32.836C130.086 31.9093 128.716 32.7156 129.145 33.6383Z" fill="#090814"/>
<path d="M101.013 33.4537C99.9319 36.2277 98.1982 38.723 96.0087 40.7364C94.938 41.7209 93.7513 42.6028 92.4716 43.298C91.1162 44.0343 89.3815 44.6381 87.9234 43.8434C87.0248 43.3537 86.2216 44.7257 87.1211 45.2159C90.4073 47.0069 94.2232 44.3884 96.6687 42.2738C99.2921 40.0054 101.289 37.1016 102.546 33.8763C102.917 32.9226 101.381 32.5094 101.013 33.4537Z" fill="#090814"/>
<path d="M142.068 67.3365C147.336 67.3365 151.606 63.0665 151.606 57.7991C151.606 52.5317 147.336 48.2617 142.068 48.2617C136.8 48.2617 132.53 52.5317 132.53 57.7991C132.53 63.0665 136.8 67.3365 142.068 67.3365Z" fill="white"/>
<path d="M141.008 64.6872C145.105 64.6872 148.426 61.3661 148.426 57.2692C148.426 53.1724 145.105 49.8513 141.008 49.8513C136.911 49.8513 133.59 53.1724 133.59 57.2692C133.59 61.3661 136.911 64.6872 141.008 64.6872Z" fill="#090814"/>
<path d="M142.862 54.8849C143.74 54.8849 144.452 54.1732 144.452 53.2953C144.452 52.4174 143.74 51.7057 142.862 51.7057C141.984 51.7057 141.272 52.4174 141.272 53.2953C141.272 54.1732 141.984 54.8849 142.862 54.8849Z" fill="white"/>
<path d="M94.9088 67.8664C100.176 67.8664 104.447 63.5963 104.447 58.3289C104.447 53.0616 100.176 48.7915 94.9088 48.7915C89.6413 48.7915 85.3711 53.0616 85.3711 58.3289C85.3711 63.5963 89.6413 67.8664 94.9088 67.8664Z" fill="white"/>
<path d="M93.8489 65.2171C97.9459 65.2171 101.267 61.8959 101.267 57.7991C101.267 53.7023 97.9459 50.3811 93.8489 50.3811C89.7519 50.3811 86.4307 53.7023 86.4307 57.7991C86.4307 61.8959 89.7519 65.2171 93.8489 65.2171Z" fill="#090814"/>
<path d="M95.7039 55.4147C96.5818 55.4147 97.2935 54.7031 97.2935 53.8252C97.2935 52.9473 96.5818 52.2356 95.7039 52.2356C94.826 52.2356 94.1143 52.9473 94.1143 53.8252C94.1143 54.7031 94.826 55.4147 95.7039 55.4147Z" fill="white"/>
<path d="M116.369 93.5644C116.369 93.5644 99.413 88.2658 103.652 78.1986C107.891 68.1313 121.138 71.8403 121.138 71.8403C121.138 71.8403 132.53 73.6948 129.146 82.3686C126.702 88.5308 122.727 91.445 116.369 93.5644Z" fill="#090814"/>
<path d="M94.9692 109.794L94.8486 108.741C94.8999 108.735 100.019 108.084 104.583 103.013C108.707 98.4307 114.096 97.9691 115.843 97.9474L115.839 93.5652L116.899 93.5641L116.904 99.0485L116.341 99.0143C116.276 99.0102 109.902 98.6868 105.371 103.721C100.523 109.107 95.1933 109.768 94.9692 109.794Z" fill="#090814"/>
<path d="M140.851 110.359C140.466 110.239 131.392 107.378 129.302 103.298C127.765 100.297 119.426 99.1887 116.343 99.0143L116.403 97.9567C116.88 97.9836 128.119 98.664 130.245 102.815C132.135 106.503 141.075 109.319 141.165 109.347L140.851 110.359Z" fill="#090814"/>
<path d="M95.3858 203.563L94.4316 203.102C104.782 181.711 94.5476 162.323 94.443 162.13L95.3744 161.625C95.4821 161.824 105.979 181.67 95.3858 203.563Z" fill="#090814"/>
<path d="M125.378 202.216C124.588 188.787 129.84 164.955 129.893 164.716L130.928 164.945C130.875 165.183 125.654 188.872 126.436 202.154L125.378 202.216Z" fill="#090814"/>
<path d="M162.802 213.31L158.563 205.892C154.242 198.33 164.967 173.614 165.426 172.566L166.397 172.99C166.369 173.054 163.598 179.412 161.381 186.587C158.481 195.971 157.825 202.465 159.483 205.367L163.722 212.784L162.802 213.31Z" fill="#090814"/>
<path d="M176.234 213.946L175.195 213.738C176.483 207.298 175.698 202.32 175.689 202.271L176.735 202.099C176.77 202.309 177.563 207.305 176.234 213.946Z" fill="#090814"/>
<path d="M164.604 215.037C163.258 209.924 165.313 202.364 165.401 202.045L166.422 202.326C166.401 202.402 164.356 209.932 165.629 214.767L164.604 215.037Z" fill="#090814"/>
<path d="M135.429 224.562L134.398 224.317C135.689 218.895 135.185 210.515 135.18 210.431L136.237 210.365C136.259 210.714 136.757 218.985 135.429 224.562Z" fill="#090814"/>
<path d="M146.411 224.537L145.369 224.342C145.995 220.992 145.779 212.091 145.776 212.001L146.836 211.974C146.845 212.344 147.058 221.077 146.411 224.537Z" fill="#090814"/>
<path d="M157.698 222.351L156.64 222.289C156.895 217.937 155.352 213.262 155.337 213.215L156.342 212.879C156.409 213.078 157.966 217.797 157.698 222.351Z" fill="#090814"/>
<path d="M75.9541 221.028C75.5334 216.144 79.6327 208.607 79.8071 208.288L80.7364 208.798C80.695 208.874 76.6165 216.373 77.0097 220.937L75.9541 221.028Z" fill="#090814"/>
<path d="M65.6385 220.468C64.956 216.026 68.9751 208.604 69.1463 208.29L70.0767 208.798C70.0364 208.871 66.0582 216.219 66.6858 220.308L65.6385 220.468Z" fill="#090814"/>
<path d="M58.6115 219.883C57.4141 219.294 57.4276 217.239 58.6534 213.417C59.4814 210.835 60.5892 208.352 60.6001 208.327L61.5677 208.76C59.5905 213.178 58.0822 218.441 59.0793 218.932L58.6115 219.883Z" fill="#090814"/>
<path d="M19.6719 218.743C19.6719 218.743 24.463 223.644 31.8675 223.379C31.8675 223.379 28.6744 230.003 15.4276 231.592C15.4276 231.592 9.59894 228.413 5.88982 228.413C2.1807 228.413 -0.458093 223.644 0.0664887 223.379C0.591071 223.114 8.00931 224.174 8.00931 224.174L19.6719 218.743Z" fill="#B3B3B3"/>
<path d="M19.6719 217.683C19.6719 217.683 24.463 222.585 31.8675 222.32C31.8675 222.32 28.6744 228.943 15.4276 230.532C15.4276 230.532 9.59894 227.353 5.88982 227.353C2.1807 227.353 -0.458093 222.585 0.0664887 222.32C0.591071 222.055 8.00931 223.114 8.00931 223.114L19.6719 217.683Z" fill="#D6D6E3"/>
<path d="M46.6904 236.361L78.3626 225.852L112.925 237.95L81.1323 251.197L46.6904 236.361Z" fill="#B3B3B3"/>
<path d="M107.588 224.108L109.44 222.32L133.06 230.532L132 232.122L107.588 224.108Z" fill="#B3B3B3"/>
<path d="M97.2637 227.221L99.6187 225.852L138.771 238.524V239.917L97.2637 227.221Z" fill="#B3B3B3"/>
<path d="M115.574 241.13L117.314 239.917L148.426 250.137L146.346 251.803L115.574 241.13Z" fill="#B3B3B3"/>
<path d="M106.507 245.86L107.587 244.309L138.771 255.353L137.298 257.025L106.507 245.86Z" fill="#B3B3B3"/>
<path d="M99.1475 249.077L99.6185 247.635L130.41 259.058L128.82 259.675L99.1475 249.077Z" fill="#B3B3B3"/>
<path d="M94.9092 253.038L97.2642 251.197L112.925 258.132L112.065 259.675L94.9092 253.038Z" fill="#B3B3B3"/>
<path d="M40.8613 240.6L42.2875 239.917L70.3835 250.667L68.8398 251.197L40.8613 240.6Z" fill="#B3B3B3"/>
<path d="M34.5029 242.189L37.6822 240.6L53.0485 248.548L51.4589 249.607L34.5029 242.189Z" fill="#B3B3B3"/>
<path d="M159.65 226.558L160.613 233.182L158.788 237.714L163.576 239.875L167.501 245.123V247.979L177.304 250.372C177.304 250.372 182.868 258.085 186.577 257.025C190.286 255.966 219.4 235.004 219.4 235.004L165.524 224.439C165.524 224.439 159.217 223.114 159.65 226.558Z" fill="#B3B3B3"/>
<path d="M158.06 224.439L159.023 231.062L157.198 235.594L161.986 237.755L165.911 243.004V245.86L175.714 248.252C175.714 248.252 181.278 255.966 184.987 254.906C188.696 253.846 217.81 232.884 217.81 232.884L163.934 222.32C163.934 222.32 157.627 220.995 158.06 224.439Z" fill="#D6D6E3"/>
<path d="M162.854 232.884L164.682 230.963L190.332 238.524L189.406 239.917L162.854 232.884Z" fill="#B3B3B3"/>
<path d="M169.091 240.843L169.8 238.538L182.338 243.249L181.687 245.557L169.091 240.843Z" fill="#B3B3B3"/>
<path d="M222.13 208.692C222.13 208.692 216.696 216.226 208.26 212.517C208.26 212.517 205.181 214.637 204.092 215.167C203.003 215.696 195.91 215.961 195.91 215.961L205.944 219.538L212.011 223.114L226.317 220.995C226.317 220.995 229.497 218.346 232.676 218.346C235.855 218.346 238.672 212.517 238.672 212.517C238.672 212.517 229.543 211.987 229.255 210.663C228.967 209.338 224.83 212.285 222.13 208.692Z" fill="#B3B3B3"/>
<path d="M220.919 255.774C221.549 259.145 235.121 252.764 235.121 252.764L229.41 249.754L226.848 249.077H223.08C223.08 249.077 219.901 246.351 216.751 247.979C216.751 247.979 220.289 252.404 220.919 255.774Z" fill="#B3B3B3"/>
<path d="M223.189 206.573C223.189 206.573 217.756 214.107 209.32 210.398C209.32 210.398 206.241 212.517 205.152 213.047C204.062 213.577 196.97 213.842 196.97 213.842L207.004 217.418L213.07 220.995L227.377 218.876C227.377 218.876 230.556 216.226 233.735 216.226C236.915 216.226 239.731 210.398 239.731 210.398C239.731 210.398 230.603 209.868 230.314 208.543C230.026 207.219 225.89 210.166 223.189 206.573Z" fill="#D6D6E3"/>
<path d="M221.979 253.655C222.608 257.025 236.181 250.645 236.181 250.645L230.469 247.635L227.907 246.958H224.14C224.14 246.958 220.961 244.232 217.811 245.86C217.811 245.86 221.349 250.284 221.979 253.655Z" fill="#D6D6E3"/>
<path d="M48.1006 236.683C48.1006 236.683 71.9869 234.047 76.3374 235.762L77.8634 249.504L48.1006 236.683Z" fill="white"/>
<path d="M87.5759 239.068C89.917 239.068 91.8149 238.237 91.8149 237.213C91.8149 236.189 89.917 235.359 87.5759 235.359C85.2348 235.359 83.3369 236.189 83.3369 237.213C83.3369 238.237 85.2348 239.068 87.5759 239.068Z" fill="white"/>
</g>
<defs>
<clipPath id="clip0_218_1513">
<rect width="240" height="279" fill="white"/>
</clipPath>
</defs>
</svg>
