<svg width="132" height="46" viewBox="0 0 132 46" fill="none" xmlns="http://www.w3.org/2000/svg">
<path d="M27.8086 25.4531C27.8086 26.9883 27.5391 28.4004 27 29.6895C26.4727 30.9785 25.7402 32.0918 24.8027 33.0293C23.8652 33.9551 22.752 34.6816 21.4629 35.209C20.1738 35.7363 18.7734 36 17.2617 36H4.92188C4.59375 36 4.28906 35.9414 4.00781 35.8242C3.72656 35.707 3.48047 35.5488 3.26953 35.3496C3.07031 35.1387 2.91211 34.8926 2.79492 34.6113C2.67773 34.3301 2.61914 34.0254 2.61914 33.6973V13.0957C2.61914 12.7793 2.67773 12.4805 2.79492 12.1992C2.91211 11.918 3.07031 11.6719 3.26953 11.4609C3.48047 11.25 3.72656 11.0859 4.00781 10.9688C4.28906 10.8516 4.59375 10.793 4.92188 10.793H17.2617C18.7734 10.793 20.1738 11.0566 21.4629 11.584C22.752 12.1113 23.8652 12.8438 24.8027 13.7812C25.7402 14.707 26.4727 15.8203 27 17.1211C27.5391 18.4102 27.8086 19.8164 27.8086 21.3398V25.4531ZM23.2383 21.3398C23.2383 20.4492 23.0918 19.6348 22.7988 18.8965C22.5176 18.1582 22.1133 17.5312 21.5859 17.0156C21.0586 16.4883 20.4258 16.084 19.6875 15.8027C18.9609 15.5098 18.1523 15.3633 17.2617 15.3633H7.18945V31.4297H17.2617C18.1523 31.4297 18.9609 31.2891 19.6875 31.0078C20.4258 30.7148 21.0586 30.3105 21.5859 29.7949C22.1133 29.2676 22.5176 28.6406 22.7988 27.9141C23.0918 27.1758 23.2383 26.3555 23.2383 25.4531V21.3398Z" fill="url(#paint0_linear_336_180)"/>
<path d="M53.0156 25.6992H38.584V21.0938H53.0156V25.6992ZM55.0723 36H38.584C37.9512 36 37.2598 35.8887 36.5098 35.666C35.7598 35.4434 35.0625 35.0801 34.418 34.5762C33.7852 34.0605 33.252 33.3984 32.8184 32.5898C32.3965 31.7695 32.1855 30.7676 32.1855 29.584V13.0957C32.1855 12.7793 32.2441 12.4805 32.3613 12.1992C32.4785 11.918 32.6367 11.6719 32.8359 11.4609C33.0469 11.25 33.293 11.0859 33.5742 10.9688C33.8555 10.8516 34.1602 10.793 34.4883 10.793H55.0723V15.3633H36.7559V29.584C36.7559 30.1816 36.9141 30.6387 37.2305 30.9551C37.5469 31.2715 38.0098 31.4297 38.6191 31.4297H55.0723V36Z" fill="url(#paint1_linear_336_180)"/>
<path d="M63.4922 33.6973C63.4922 34.0137 63.4277 34.3125 63.2988 34.5938C63.1816 34.8633 63.0176 35.1035 62.8066 35.3145C62.6074 35.5137 62.3672 35.6719 62.0859 35.7891C61.8164 35.9062 61.5293 35.9648 61.2246 35.9648C60.9082 35.9648 60.6094 35.9062 60.3281 35.7891C60.0586 35.6719 59.8184 35.5137 59.6074 35.3145C59.4082 35.1035 59.25 34.8633 59.1328 34.5938C59.0156 34.3125 58.957 34.0137 58.957 33.6973C58.957 33.3926 59.0156 33.1055 59.1328 32.8359C59.25 32.5547 59.4082 32.3145 59.6074 32.1152C59.8184 31.9043 60.0586 31.7402 60.3281 31.623C60.6094 31.4941 60.9082 31.4297 61.2246 31.4297C61.5293 31.4297 61.8164 31.4941 62.0859 31.623C62.3672 31.7402 62.6074 31.9043 62.8066 32.1152C63.0176 32.3145 63.1816 32.5547 63.2988 32.8359C63.4277 33.1055 63.4922 33.3926 63.4922 33.6973ZM63.4922 19.3008C63.4922 19.6172 63.4277 19.916 63.2988 20.1973C63.1816 20.4668 63.0176 20.707 62.8066 20.918C62.6074 21.1172 62.3672 21.2754 62.0859 21.3926C61.8164 21.5098 61.5293 21.5684 61.2246 21.5684C60.9082 21.5684 60.6094 21.5098 60.3281 21.3926C60.0586 21.2754 59.8184 21.1172 59.6074 20.918C59.4082 20.707 59.25 20.4668 59.1328 20.1973C59.0156 19.916 58.957 19.6172 58.957 19.3008C58.957 18.9961 59.0156 18.709 59.1328 18.4395C59.25 18.1582 59.4082 17.918 59.6074 17.7188C59.8184 17.5078 60.0586 17.3438 60.3281 17.2266C60.6094 17.0977 60.9082 17.0332 61.2246 17.0332C61.5293 17.0332 61.8164 17.0977 62.0859 17.2266C62.3672 17.3438 62.6074 17.5078 62.8066 17.7188C63.0176 17.918 63.1816 18.1582 63.2988 18.4395C63.4277 18.709 63.4922 18.9961 63.4922 19.3008ZM97.5938 36H92.9883V20.9883L84.8848 35.2441C84.6855 35.6074 84.4043 35.8828 84.041 36.0703C83.6895 36.2578 83.3086 36.3516 82.8984 36.3516C82.5 36.3516 82.125 36.2578 81.7734 36.0703C81.4336 35.8828 81.1641 35.6074 80.9648 35.2441L72.8262 20.9883V36H68.2559V12.7441C68.2559 12.2168 68.4082 11.748 68.7129 11.3379C69.0293 10.9277 69.4395 10.6523 69.9434 10.5117C70.1895 10.4531 70.4355 10.4355 70.6816 10.459C70.9277 10.4707 71.1621 10.5234 71.3848 10.6172C71.6191 10.6992 71.8301 10.8223 72.0176 10.9863C72.2051 11.1387 72.3633 11.3262 72.4922 11.5488L82.8984 29.6367L93.3047 11.5488C93.5742 11.1035 93.9434 10.7871 94.4121 10.5996C94.8926 10.4121 95.3906 10.3828 95.9062 10.5117C96.3984 10.6523 96.8027 10.9277 97.1191 11.3379C97.4355 11.748 97.5938 12.2168 97.5938 12.7441V36ZM129.375 25.8047C129.375 27.3398 129.111 28.752 128.584 30.041C128.057 31.3301 127.324 32.4434 126.387 33.3809C125.449 34.3184 124.336 35.0508 123.047 35.5781C121.77 36.0938 120.375 36.3516 118.863 36.3516H112.676C111.164 36.3516 109.764 36.0938 108.475 35.5781C107.186 35.0508 106.072 34.3184 105.135 33.3809C104.197 32.4434 103.459 31.3301 102.92 30.041C102.393 28.752 102.129 27.3398 102.129 25.8047V20.9883C102.129 19.4648 102.393 18.0586 102.92 16.7695C103.459 15.4688 104.197 14.3555 105.135 13.4297C106.072 12.4922 107.186 11.7598 108.475 11.2324C109.764 10.7051 111.164 10.4414 112.676 10.4414H118.863C120.375 10.4414 121.77 10.7051 123.047 11.2324C124.336 11.7598 125.449 12.4922 126.387 13.4297C127.324 14.3555 128.057 15.4688 128.584 16.7695C129.111 18.0586 129.375 19.4648 129.375 20.9883V25.8047ZM124.805 20.9883C124.805 20.0859 124.658 19.2715 124.365 18.5449C124.084 17.8066 123.68 17.1797 123.152 16.6641C122.637 16.1367 122.01 15.7324 121.271 15.4512C120.545 15.1582 119.742 15.0117 118.863 15.0117H112.676C111.785 15.0117 110.971 15.1582 110.232 15.4512C109.506 15.7324 108.879 16.1367 108.352 16.6641C107.824 17.1797 107.414 17.8066 107.121 18.5449C106.84 19.2715 106.699 20.0859 106.699 20.9883V25.8047C106.699 26.707 106.84 27.5273 107.121 28.2656C107.414 28.9922 107.824 29.6191 108.352 30.1465C108.879 30.6621 109.506 31.0664 110.232 31.3594C110.971 31.6406 111.785 31.7812 112.676 31.7812H118.828C119.719 31.7812 120.527 31.6406 121.254 31.3594C121.992 31.0664 122.625 30.6621 123.152 30.1465C123.68 29.6191 124.084 28.9922 124.365 28.2656C124.658 27.5273 124.805 26.707 124.805 25.8047V20.9883Z" fill="url(#paint2_linear_336_180)"/>
<defs>
<linearGradient id="paint0_linear_336_180" x1="66" y1="0" x2="66" y2="46" gradientUnits="userSpaceOnUse">
<stop stop-color="#EF94D5"/>
<stop offset="1" stop-color="#F9B4ED"/>
</linearGradient>
<linearGradient id="paint1_linear_336_180" x1="66" y1="0" x2="66" y2="46" gradientUnits="userSpaceOnUse">
<stop stop-color="#DABFFF"/>
<stop offset="1" stop-color="#EABAF6"/>
</linearGradient>
<linearGradient id="paint2_linear_336_180" x1="66" y1="0" x2="66" y2="46" gradientUnits="userSpaceOnUse">
<stop stop-color="#111111"/>
<stop offset="1" stop-color="#777777"/>
</linearGradient>
</defs>
</svg>
