<svg width="280" height="280" viewBox="0 0 280 280" fill="none" xmlns="http://www.w3.org/2000/svg">
<g clip-path="url(#clip0_317_3963)">
<path d="M277.544 107.078C277.443 107.078 277.345 107.044 277.263 106.98L141.41 1.58261C140.996 1.26336 140.505 1.09275 140.002 1.09371C139.499 1.09466 139.008 1.26714 138.596 1.58796L3.72072 106.979C3.61404 107.062 3.48201 107.095 3.35367 107.07C3.22532 107.044 3.11118 106.964 3.03635 106.845C2.96152 106.726 2.93214 106.579 2.95466 106.436C2.97719 106.293 3.04978 106.166 3.15646 106.082L138.031 0.691774C138.609 0.242696 139.296 0.00129452 140 5.19182e-06C140.705 -0.00128414 141.392 0.237598 141.971 0.684559L277.825 106.081C277.91 106.148 277.975 106.243 278.009 106.354C278.042 106.464 278.044 106.583 278.012 106.694C277.981 106.806 277.919 106.903 277.834 106.972C277.75 107.041 277.648 107.078 277.544 107.078Z" fill="#3F3D56"/>
<path d="M11.4277 110.814L140.135 4.55225L269.82 118.375L146.767 199.637L79.9599 182.673L11.4277 110.814Z" fill="#E6E6E6"/>
<path d="M85.5992 249.83H22.0145C21.6241 249.83 21.2374 249.745 20.8765 249.579C20.5157 249.413 20.1877 249.169 19.9115 248.862C19.6352 248.555 19.4161 248.19 19.2665 247.788C19.117 247.386 19.04 246.955 19.04 246.52C19.04 246.086 19.117 245.655 19.2665 245.253C19.4161 244.851 19.6352 244.486 19.9115 244.179C20.1877 243.872 20.5157 243.628 20.8765 243.462C21.2374 243.296 21.6241 243.211 22.0145 243.211H85.5992C85.9896 243.211 86.3763 243.296 86.7372 243.462C87.0981 243.628 87.426 243.872 87.7022 244.179C87.9785 244.486 88.1976 244.851 88.3472 245.253C88.4967 245.655 88.5737 246.086 88.5737 246.52C88.5737 246.955 88.4967 247.386 88.3472 247.788C88.1976 248.19 87.9785 248.555 87.7022 248.862C87.426 249.169 87.0981 249.413 86.7372 249.579C86.3763 249.745 85.9896 249.83 85.5992 249.83Z" fill="#F9B4ED"/>
<path d="M44.8273 235.602H22.0145C21.6241 235.602 21.2374 235.517 20.8765 235.351C20.5157 235.185 20.1877 234.941 19.9115 234.634C19.6352 234.327 19.4161 233.962 19.2665 233.56C19.117 233.158 19.04 232.728 19.04 232.293C19.04 231.858 19.117 231.427 19.2665 231.025C19.4161 230.623 19.6352 230.259 19.9115 229.951C20.1877 229.644 20.5157 229.4 20.8765 229.234C21.2374 229.068 21.6241 228.983 22.0145 228.983H44.8273C45.2177 228.983 45.6044 229.068 45.9653 229.234C46.3261 229.4 46.654 229.644 46.9303 229.951C47.2066 230.259 47.4257 230.623 47.5753 231.025C47.7248 231.427 47.8017 231.858 47.8017 232.293C47.8017 232.728 47.7248 233.158 47.5753 233.56C47.4257 233.962 47.2066 234.327 46.9303 234.634C46.654 234.941 46.3261 235.185 45.9653 235.351C45.6044 235.517 45.2177 235.602 44.8273 235.602Z" fill="#F9B4ED"/>
<path d="M141.946 170C141.462 170 140.984 169.896 140.536 169.692L61.1582 133.002V18.1538C61.1593 17.1382 61.5219 16.1646 62.1665 15.4465C62.8111 14.7284 63.6852 14.3244 64.5968 14.3232H216.877C217.789 14.3244 218.663 14.7284 219.308 15.4465C219.952 16.1646 220.315 17.1382 220.316 18.1538V133.082L220.167 133.153L143.398 169.674C142.938 169.89 142.444 170 141.946 170Z" fill="white"/>
<path d="M141.945 170.273C141.43 170.274 140.919 170.163 140.442 169.946L60.9121 133.185V18.154C60.9132 17.0659 61.3017 16.0227 61.9924 15.2533C62.6831 14.4838 63.6195 14.051 64.5963 14.0498H216.877C217.854 14.051 218.79 14.4838 219.481 15.2533C220.172 16.0227 220.56 17.0659 220.561 18.154V133.263L143.494 169.926C143.003 170.156 142.477 170.274 141.945 170.273ZM61.8945 132.453L140.817 168.934C141.553 169.267 142.377 169.261 143.11 168.919L219.579 132.54V18.154C219.578 17.356 219.293 16.5911 218.787 16.0268C218.28 15.4626 217.593 15.1452 216.877 15.1442H64.5963C63.88 15.1452 63.1933 15.4626 62.6868 16.0268C62.1804 16.5911 61.8954 17.356 61.8946 18.154L61.8945 132.453Z" fill="#3F3D56"/>
<path d="M276.561 105.983H276.463L220.07 132.808L142.913 169.51C142.612 169.652 142.288 169.725 141.961 169.727C141.634 169.729 141.31 169.659 141.007 169.521L61.4035 132.731L3.62521 106.027L3.53694 105.983H3.4386C2.52693 105.984 1.6529 106.388 1.00826 107.106C0.363613 107.824 0.00101156 108.798 0 109.814V276.169C0.00101286 277.185 0.363613 278.159 1.00826 278.877C1.6529 279.595 2.52693 279.999 3.4386 280H276.561C277.473 279.999 278.347 279.595 278.992 278.877C279.636 278.159 279.999 277.185 280 276.169V109.814C279.999 108.798 279.636 107.824 278.992 107.106C278.347 106.388 277.473 105.984 276.561 105.983ZM279.018 276.169C279.017 276.895 278.758 277.591 278.298 278.104C277.837 278.617 277.213 278.905 276.561 278.905H3.4386C2.78727 278.905 2.16269 278.617 1.70213 278.104C1.24157 277.591 0.982717 276.895 0.982456 276.169V109.814C0.983347 109.106 1.22972 108.426 1.67007 107.916C2.11041 107.407 2.71064 107.106 3.34529 107.078L61.4035 133.913L140.629 170.534C141.487 170.922 142.447 170.916 143.301 170.517L220.07 133.995L276.66 107.078C277.293 107.108 277.892 107.409 278.331 107.919C278.77 108.429 279.016 109.107 279.018 109.814V276.169Z" fill="#3F3D56"/>
<path d="M141.151 137.433C138.221 137.439 135.368 136.384 133.024 134.426L132.878 134.304L102.269 108.198C100.852 106.988 99.6621 105.478 98.7681 103.756C97.8741 102.034 97.2934 100.133 97.059 98.1605C96.8247 96.1883 96.9413 94.184 97.4023 92.2621C97.8633 90.3401 98.6596 88.5381 99.7457 86.9589C100.832 85.3798 102.187 84.0544 103.732 83.0585C105.278 82.0626 106.985 81.4156 108.756 81.1546C110.526 80.8935 112.325 81.0235 114.051 81.537C115.776 82.0505 117.394 82.9376 118.811 84.1475L138.637 101.083L185.49 33.0156C186.576 31.4369 187.931 30.112 189.478 29.1167C191.024 28.1214 192.731 27.4751 194.501 27.2148C196.272 26.9544 198.071 27.0851 199.796 27.5993C201.521 28.1136 203.139 29.0014 204.556 30.2119L204.264 30.6525L204.563 30.2183C207.422 32.6658 209.292 36.2766 209.764 40.2584C210.236 44.2402 209.271 48.268 207.08 51.4579L151.97 131.521C150.696 133.366 149.057 134.859 147.181 135.885C145.304 136.91 143.241 137.44 141.151 137.433Z" fill="#F9B4ED"/>
</g>
<defs>
<clipPath id="clip0_317_3963">
<rect width="280" height="280" fill="white"/>
</clipPath>
</defs>
</svg>
