<svg width="240" height="230" viewBox="0 0 240 230" fill="none" xmlns="http://www.w3.org/2000/svg">
<g clip-path="url(#clip0_652_3385)">
<path d="M36.3417 81.4746C36.3417 81.4746 40.0955 93.8452 38.9695 95.3455C37.8434 96.8458 50.9814 87.0984 50.9814 87.0984C50.9814 87.0984 46.1016 83.7245 47.9774 78.8513L36.3417 81.4746Z" fill="#9F616A"/>
<path d="M201.824 54.4813H200.565V19.9726C200.565 14.6755 198.458 9.59542 194.707 5.84983C190.956 2.10425 185.869 2.60527e-09 180.565 2.60527e-09H107.354C104.728 -4.23597e-05 102.127 0.516534 99.7004 1.52023C97.2739 2.52393 95.0692 3.99509 93.212 5.84972C91.3549 7.70435 89.8817 9.90613 88.8766 12.3293C87.8715 14.7525 87.3542 17.3497 87.3542 19.9726V209.29C87.3542 214.587 89.4613 219.667 93.2119 223.412C96.9625 227.158 102.049 229.262 107.354 229.262H180.564C185.868 229.262 190.955 227.158 194.705 223.412C198.456 219.667 200.563 214.587 200.563 209.29V79.0452H201.823L201.824 54.4813Z" fill="#090814"/>
<path d="M196.462 18.6349V210.627C196.462 214.643 194.865 218.494 192.022 221.334C189.179 224.174 185.323 225.771 181.302 225.773H106.586C102.563 225.773 98.7038 224.177 95.8583 221.337C93.0128 218.496 91.4139 214.643 91.4132 210.625V18.6352C91.4144 14.6176 93.0135 10.765 95.8588 7.92475C98.7041 5.0845 102.563 3.48919 106.586 3.4897H115.649C115.204 4.5826 115.034 5.76794 115.155 6.94152C115.277 8.1151 115.685 9.241 116.343 10.2203C117.002 11.1995 117.892 12.0021 118.934 12.5576C119.977 13.1131 121.139 13.4043 122.321 13.4058H164.916C166.098 13.4044 167.261 13.1131 168.303 12.5576C169.345 12.0021 170.235 11.1995 170.894 10.2202C171.553 9.24087 171.961 8.11492 172.082 6.94129C172.203 5.76766 172.033 4.5823 171.588 3.48938H181.297C185.318 3.48989 189.174 5.08499 192.018 7.92402C194.862 10.763 196.46 14.6137 196.462 18.6294V18.6349Z" fill="white"/>
<path d="M143.924 95.7077C161.151 95.7077 175.116 81.7614 175.116 64.5577C175.116 47.354 161.151 33.4077 143.924 33.4077C126.697 33.4077 112.732 47.354 112.732 64.5577C112.732 81.7614 126.697 95.7077 143.924 95.7077Z" fill="#F9B4ED"/>
<path d="M177.943 129.224H111.551C111.225 129.224 110.913 129.095 110.682 128.865C110.452 128.634 110.322 128.322 110.322 127.997V111.551C110.322 111.225 110.452 110.913 110.682 110.683C110.913 110.453 111.225 110.323 111.551 110.323H177.943C178.269 110.323 178.581 110.453 178.812 110.683C179.042 110.913 179.172 111.225 179.172 111.551V127.996C179.172 128.321 179.042 128.633 178.812 128.863C178.581 129.094 178.269 129.223 177.943 129.224V129.224ZM111.551 110.814C111.356 110.814 111.168 110.891 111.03 111.03C110.891 111.168 110.814 111.355 110.813 111.55V127.996C110.814 128.191 110.891 128.378 111.03 128.517C111.168 128.655 111.356 128.732 111.551 128.733H177.943C178.138 128.732 178.326 128.655 178.464 128.517C178.603 128.378 178.68 128.191 178.68 127.996V111.55C178.68 111.355 178.603 111.168 178.464 111.03C178.326 110.891 178.138 110.814 177.943 110.814H111.551Z" fill="#E6E6E6"/>
<path d="M132.084 116.245C131.858 116.25 131.644 116.342 131.486 116.503C131.328 116.664 131.24 116.88 131.24 117.105C131.24 117.33 131.328 117.546 131.486 117.707C131.644 117.868 131.858 117.96 132.084 117.965H172.654C172.881 117.971 173.101 117.888 173.267 117.733C173.432 117.578 173.53 117.364 173.539 117.137C173.547 116.911 173.466 116.69 173.312 116.524C173.159 116.357 172.946 116.257 172.719 116.246H172.681H132.084V116.245Z" fill="#E6E6E6"/>
<path d="M132.084 121.402C131.855 121.402 131.636 121.492 131.475 121.653C131.314 121.815 131.223 122.033 131.223 122.261C131.223 122.489 131.314 122.708 131.475 122.869C131.636 123.03 131.855 123.121 132.084 123.121H172.654C172.881 123.127 173.101 123.044 173.267 122.889C173.432 122.734 173.53 122.52 173.539 122.294C173.547 122.067 173.466 121.847 173.312 121.68C173.159 121.513 172.946 121.413 172.719 121.403H172.681H132.084V121.402Z" fill="#E6E6E6"/>
<path d="M177.943 156.637H111.551C111.225 156.637 110.913 156.508 110.682 156.277C110.452 156.047 110.322 155.735 110.322 155.41V138.964C110.322 138.638 110.452 138.326 110.682 138.096C110.913 137.866 111.225 137.736 111.551 137.736H177.943C178.269 137.736 178.581 137.866 178.812 138.096C179.042 138.326 179.172 138.638 179.172 138.964V155.41C179.171 155.735 179.041 156.047 178.811 156.277C178.58 156.506 178.268 156.636 177.943 156.636V156.637ZM111.551 138.227C111.356 138.227 111.168 138.305 111.03 138.443C110.891 138.581 110.814 138.768 110.813 138.964V155.41C110.814 155.606 110.891 155.793 111.03 155.931C111.168 156.069 111.356 156.147 111.551 156.147H177.943C178.138 156.147 178.326 156.069 178.464 155.931C178.603 155.793 178.68 155.606 178.68 155.41V138.964C178.68 138.768 178.603 138.581 178.464 138.443C178.326 138.305 178.138 138.227 177.943 138.227H111.551Z" fill="#E6E6E6"/>
<path d="M132.084 143.747C131.855 143.747 131.636 143.838 131.475 143.999C131.314 144.16 131.223 144.379 131.223 144.607C131.223 144.835 131.314 145.054 131.475 145.215C131.636 145.376 131.855 145.466 132.084 145.466H172.654C172.768 145.47 172.881 145.45 172.987 145.409C173.094 145.368 173.191 145.307 173.273 145.228C173.355 145.149 173.421 145.055 173.466 144.951C173.512 144.847 173.536 144.735 173.538 144.621C173.54 144.507 173.519 144.395 173.477 144.289C173.435 144.183 173.372 144.087 173.293 144.006C173.213 143.925 173.118 143.86 173.014 143.816C172.909 143.771 172.796 143.748 172.682 143.747H132.084Z" fill="#E6E6E6"/>
<path d="M132.084 148.905C131.855 148.905 131.636 148.995 131.475 149.157C131.314 149.318 131.223 149.536 131.223 149.764C131.223 149.992 131.314 150.211 131.475 150.372C131.636 150.533 131.855 150.624 132.084 150.624H172.654C172.768 150.627 172.881 150.607 172.987 150.566C173.094 150.526 173.191 150.464 173.273 150.385C173.355 150.307 173.421 150.213 173.466 150.108C173.512 150.004 173.536 149.892 173.538 149.779C173.54 149.665 173.519 149.552 173.477 149.446C173.435 149.341 173.372 149.245 173.293 149.163C173.213 149.082 173.118 149.017 173.014 148.973C172.909 148.929 172.796 148.906 172.682 148.905H132.084Z" fill="#E6E6E6"/>
<path d="M177.943 184.14H111.551C111.225 184.14 110.913 184.01 110.682 183.78C110.452 183.55 110.322 183.238 110.322 182.912V166.466C110.322 166.141 110.452 165.829 110.682 165.598C110.913 165.368 111.225 165.239 111.551 165.238H177.943C178.269 165.239 178.581 165.368 178.812 165.598C179.042 165.829 179.172 166.141 179.172 166.466V182.913C179.172 183.238 179.042 183.55 178.812 183.781C178.581 184.011 178.269 184.14 177.943 184.141V184.14ZM111.551 165.729C111.356 165.73 111.168 165.807 111.03 165.945C110.891 166.083 110.814 166.271 110.813 166.466V182.913C110.814 183.108 110.891 183.296 111.03 183.434C111.168 183.572 111.356 183.65 111.551 183.65H177.943C178.138 183.65 178.326 183.572 178.464 183.434C178.603 183.296 178.68 183.108 178.68 182.913V166.466C178.68 166.271 178.603 166.083 178.464 165.945C178.326 165.807 178.138 165.73 177.943 165.729H111.551Z" fill="#E6E6E6"/>
<path d="M132.084 171.251C131.855 171.251 131.636 171.342 131.475 171.503C131.314 171.664 131.223 171.883 131.223 172.11C131.223 172.338 131.314 172.557 131.475 172.718C131.636 172.879 131.855 172.97 132.084 172.97H172.654C172.881 172.976 173.101 172.893 173.267 172.738C173.432 172.583 173.53 172.369 173.539 172.143C173.547 171.917 173.466 171.696 173.312 171.529C173.159 171.362 172.946 171.263 172.719 171.252H172.681H132.084V171.251Z" fill="#E6E6E6"/>
<path d="M132.084 176.408C131.855 176.408 131.636 176.499 131.475 176.66C131.314 176.821 131.223 177.04 131.223 177.268C131.223 177.496 131.314 177.714 131.475 177.875C131.636 178.037 131.855 178.127 132.084 178.127H172.654C172.881 178.133 173.101 178.05 173.267 177.895C173.432 177.74 173.53 177.526 173.539 177.3C173.547 177.074 173.466 176.853 173.312 176.686C173.159 176.519 172.946 176.42 172.719 176.409H172.681H132.084V176.408Z" fill="#E6E6E6"/>
<path d="M239.186 229.862H0.626004C0.280055 229.862 0 229.711 0 229.525C0 229.339 0.280378 229.188 0.626004 229.188H239.186C239.532 229.188 239.812 229.339 239.812 229.525C239.812 229.711 239.532 229.862 239.186 229.862Z" fill="#E6E6E6"/>
<path d="M229.082 216.712C228.063 217.07 226.969 217.16 225.905 216.973C224.841 216.785 223.843 216.328 223.008 215.644C220.88 213.86 220.213 210.922 219.67 208.202L218.065 200.155L221.426 202.466C223.843 204.128 226.315 205.844 227.988 208.251C229.662 210.658 230.393 213.945 229.048 216.55" fill="#E6E6E6"/>
<path d="M228.563 227.015C228.986 223.936 229.422 220.819 229.125 217.708C228.861 214.946 228.017 212.247 226.299 210.035C225.387 208.862 224.277 207.858 223.019 207.067C222.691 206.86 222.389 207.379 222.716 207.585C224.892 208.958 226.575 210.987 227.523 213.377C228.569 216.036 228.737 218.933 228.556 221.757C228.447 223.465 228.216 225.161 227.983 226.854C227.965 226.93 227.976 227.011 228.015 227.079C228.054 227.148 228.118 227.199 228.193 227.223C228.27 227.243 228.352 227.233 228.421 227.194C228.49 227.154 228.541 227.089 228.563 227.013L228.563 227.015Z" fill="#F2F2F2"/>
<path d="M225.518 222.076C225.081 222.739 224.48 223.279 223.774 223.643C223.067 224.008 222.278 224.184 221.484 224.155C219.441 224.059 217.738 222.635 216.205 221.285L211.672 217.285L214.672 217.141C216.83 217.038 219.044 216.942 221.1 217.606C223.157 218.271 225.051 219.87 225.427 221.994" fill="#E6E6E6"/>
<path d="M229.759 228.784C227.724 225.185 225.36 221.186 221.139 219.907C219.966 219.553 218.735 219.426 217.514 219.533C217.129 219.566 217.225 220.159 217.611 220.126C219.658 219.956 221.701 220.496 223.396 221.655C225.028 222.764 226.298 224.305 227.373 225.94C228.032 226.94 228.622 227.986 229.211 229.028C229.399 229.361 229.95 229.121 229.759 228.784Z" fill="#F2F2F2"/>
<path d="M119.834 124.829C122.686 124.829 124.998 122.521 124.998 119.673C124.998 116.825 122.686 114.516 119.834 114.516C116.982 114.516 114.67 116.825 114.67 119.673C114.67 122.521 116.982 124.829 119.834 124.829Z" fill="#F9B4ED"/>
<path d="M117.362 118.709C117.303 118.709 117.254 119.094 117.254 119.569C117.254 120.043 117.303 120.428 117.362 120.428H122.439C122.499 120.436 122.548 120.058 122.549 119.583C122.582 119.288 122.546 118.989 122.443 118.71H117.362V118.709Z" fill="#E6E6E6"/>
<path d="M119.834 152.343C122.686 152.343 124.998 150.034 124.998 147.186C124.998 144.338 122.686 142.03 119.834 142.03C116.982 142.03 114.67 144.338 114.67 147.186C114.67 150.034 116.982 152.343 119.834 152.343Z" fill="#F9B4ED"/>
<path d="M117.362 146.223C117.303 146.223 117.254 146.608 117.254 147.083C117.254 147.557 117.303 147.942 117.362 147.942H122.439C122.499 147.95 122.548 147.572 122.549 147.097C122.582 146.802 122.546 146.503 122.443 146.224L117.362 146.223Z" fill="#E6E6E6"/>
<path d="M119.834 179.846C122.686 179.846 124.998 177.537 124.998 174.689C124.998 171.841 122.686 169.532 119.834 169.532C116.982 169.532 114.67 171.841 114.67 174.689C114.67 177.537 116.982 179.846 119.834 179.846Z" fill="#F9B4ED"/>
<path d="M117.362 173.726C117.303 173.726 117.254 174.111 117.254 174.585C117.254 175.06 117.303 175.445 117.362 175.445H122.439C122.499 175.453 122.548 175.074 122.549 174.6C122.582 174.304 122.546 174.005 122.443 173.726L117.362 173.726Z" fill="#E6E6E6"/>
<path d="M137.187 56.0036L135.36 57.8284L150.663 73.111L152.49 71.2862L137.187 56.0036Z" fill="white"/>
<path d="M152.49 57.83L150.663 56.0052L135.359 71.2878L137.187 73.1126L152.49 57.83Z" fill="white"/>
<path d="M29.1553 147.14C29.6029 146.982 30.0104 146.728 30.3489 146.395C30.6875 146.063 30.949 145.66 31.1149 145.216C31.2808 144.772 31.3472 144.296 31.3093 143.824C31.2714 143.351 31.1303 142.892 30.8957 142.48L38.5063 133.814L32.5654 132.996L26.2478 141.351C25.5801 141.79 25.0969 142.459 24.89 143.23C24.6831 144.001 24.7668 144.822 25.1252 145.536C25.4836 146.25 26.0918 146.807 26.8346 147.103C27.5773 147.399 28.403 147.413 29.155 147.141L29.1553 147.14Z" fill="#9F616A"/>
<path d="M38.3351 223.94H33.0263L30.5007 203.49H38.336L38.3351 223.94Z" fill="#9F616A"/>
<path d="M66.1253 219.504L61.054 221.075L52.571 202.294L60.0539 199.974L66.1253 219.504Z" fill="#9F616A"/>
<path d="M34.2696 129.659L26.4071 138.652L32.5625 139.205L34.2696 129.659Z" fill="#E6E6E6"/>
<path d="M31.1974 141.25C31.1974 141.25 28.4663 142.614 28.1249 148.751C27.7835 154.887 29.1492 170.912 29.1492 170.912C29.1492 170.912 27.7838 178.071 29.1492 184.549C30.5146 191.026 27.7838 214.549 29.4906 214.549C31.1974 214.549 40.0732 215.572 40.4146 214.549C40.7561 213.526 41.0975 198.185 41.0975 198.185C41.0975 198.185 43.8286 190.343 41.0975 185.572C41.0975 185.572 50.6332 202.2 56.8009 214.891C58.1507 217.668 68.4078 214.55 66.7009 211.481C64.9941 208.413 60.8977 194.435 60.8977 194.435C60.8977 194.435 57.8251 184.207 52.3633 179.775L55.0944 157.956C55.0944 157.956 60.898 143.297 57.4847 141.251C54.0714 139.206 31.1974 141.25 31.1974 141.25Z" fill="#090814"/>
<path d="M41.4386 86.3616C46.3406 86.3616 50.3144 82.3931 50.3144 77.4977C50.3144 72.6023 46.3406 68.6339 41.4386 68.6339C36.5366 68.6339 32.5628 72.6023 32.5628 77.4977C32.5628 82.3931 36.5366 86.3616 41.4386 86.3616Z" fill="#9F616A"/>
<path d="M51.3387 86.3616L40.3045 92.839C40.3045 92.839 36.0795 95.2151 34.5012 99.3164C32.819 103.687 33.7967 109.842 34.5012 111.249C35.8666 113.976 33.9285 120.794 33.9285 120.794L32.2217 136.477C32.2217 136.477 26.077 142.272 30.8563 142.954C35.6356 143.636 44.17 142.613 49.2908 142.954C54.4115 143.295 60.2148 143.977 58.508 140.567C56.8012 137.157 54.7529 134.771 56.8012 127.954C58.404 122.619 58.3345 102.669 58.2286 94.2445C58.2142 93.0873 57.9036 91.9531 57.3263 90.9496C56.7489 89.9462 55.9241 89.107 54.9303 88.5119L51.3387 86.3616Z" fill="#E5E5E5"/>
<path opacity="0.1" d="M46.3901 97.1013L47.4141 117.897L37.4891 137.969L35.8059 137.33L46.0474 118.579L46.3901 97.1013Z" fill="black"/>
<path opacity="0.1" d="M57.6543 122.329V119.942L46.0487 139.034L57.6543 122.329Z" fill="black"/>
<path d="M35.1392 69.2864L33.673 68.7006C33.673 68.7006 36.7417 65.3274 41.0096 65.6206L39.809 64.3006C39.809 64.3006 42.7436 63.1274 45.4117 66.2071C46.8142 67.8261 48.4367 69.7293 49.4494 71.8729H51.0208L50.3651 73.3151L52.6605 74.7574L50.3044 74.4993C50.5276 75.7444 50.4512 77.0247 50.0815 78.2345L50.1461 79.3745C50.1461 79.3745 47.4137 75.1522 47.4137 74.5681V76.0326C47.4137 76.0326 45.9463 74.7126 45.9463 73.8326L45.1459 74.8593L44.7456 73.2464L39.81 74.8593L40.6098 73.5387L37.5411 73.9787L38.7418 72.3658C38.7418 72.3658 35.2736 74.2722 35.1401 75.8858C35.0067 77.4993 33.2728 79.5522 33.2728 79.5522L32.4724 78.0855C32.4724 78.0855 31.2707 71.4864 35.1392 69.2864Z" fill="#090814"/>
<path d="M40.8817 148.105C41.2941 147.87 41.6499 147.548 41.924 147.16C42.1981 146.773 42.3838 146.331 42.4682 145.864C42.5525 145.397 42.5333 144.918 42.412 144.459C42.2907 144.001 42.0703 143.574 41.7662 143.21L47.7171 133.333L41.7238 133.581L36.9917 142.923C36.4128 143.473 36.0564 144.217 35.9899 145.013C35.9235 145.808 36.1517 146.601 36.6312 147.24C37.1108 147.879 37.8083 148.32 38.5917 148.479C39.3752 148.639 40.19 148.506 40.8817 148.105V148.105Z" fill="#9F616A"/>
<path d="M54.4115 90.7942L56.9717 90.2829C56.9717 90.2829 64.6527 95.9081 62.263 107.158C59.8734 118.409 49.2908 135.455 49.2908 135.455C49.2908 135.455 46.9005 138.523 46.2182 139.205C45.536 139.886 44.17 139.205 44.8529 140.228C45.5357 141.251 43.8286 141.932 43.8286 141.932C43.8286 141.932 36.3182 141.932 37.001 139.205C37.6839 136.477 49.2908 117.044 49.2908 117.044L47.583 98.9748C47.583 98.9748 46.2179 90.1123 54.4115 90.7942Z" fill="#E5E5E5"/>
<path d="M62.1635 219.431C62.1635 219.431 58.6656 216.869 58.6656 218.266C58.6656 219.663 54.7013 225.253 54.7013 225.253C54.7013 225.253 48.1718 229.91 53.5352 229.91C58.8985 229.91 61.2307 228.979 61.2307 228.979L66.8276 225.253C66.8276 225.253 68.2269 223.622 67.7604 221.759C67.294 219.896 65.6608 217.334 65.6608 217.334C65.6608 217.334 63.7961 219.896 62.1635 219.431Z" fill="#090814"/>
<path d="M32.6071 221.09C32.6071 221.09 32.1245 218.68 30.4354 219.885C28.7464 221.091 24.1615 224.705 24.1615 224.705C24.1615 224.705 15.7156 226.633 21.0244 229.043C26.3331 231.453 38.3984 228.079 38.3984 228.079C38.3984 228.079 38.881 220.367 38.3984 220.608C37.9158 220.849 32.8484 221.572 32.6071 221.09Z" fill="#090814"/>
</g>
<defs>
<clipPath id="clip0_652_3385">
<rect width="240" height="230" fill="white"/>
</clipPath>
</defs>
</svg>
